<svg width="60" height="59" viewBox="0 0 60 59" fill="none" xmlns="http://www.w3.org/2000/svg">
<path d="M30 32.4961C31.6547 32.4961 32.9961 31.1547 32.9961 29.5C32.9961 27.8453 31.6547 26.5039 30 26.5039C28.3453 26.5039 27.0039 27.8453 27.0039 29.5C27.0039 31.1547 28.3453 32.4961 30 32.4961Z" fill="white" stroke="white" stroke-width="0.234375" stroke-miterlimit="10"/>
<path d="M40.3711 32.4961C42.0258 32.4961 43.3672 31.1547 43.3672 29.5C43.3672 27.8453 42.0258 26.5039 40.3711 26.5039C38.7164 26.5039 37.375 27.8453 37.375 29.5C37.375 31.1547 38.7164 32.4961 40.3711 32.4961Z" fill="white" stroke="white" stroke-width="0.234375" stroke-miterlimit="10"/>
<path d="M19.6289 32.4961C21.2836 32.4961 22.625 31.1547 22.625 29.5C22.625 27.8453 21.2836 26.5039 19.6289 26.5039C17.9742 26.5039 16.6328 27.8453 16.6328 29.5C16.6328 31.1547 17.9742 32.4961 19.6289 32.4961Z" fill="white" stroke="white" stroke-width="0.234375" stroke-miterlimit="10"/>
<path d="M18.9375 42.4062L4.1875 29.5L18.9375 16.5938M41.0625 42.4062L55.8125 29.5L41.0625 16.5938" stroke="white" stroke-width="2" stroke-linecap="round" stroke-linejoin="round"/>
</svg>
