<svg width="482" height="352" viewBox="0 0 482 352" fill="none" xmlns="http://www.w3.org/2000/svg">
<path d="M105.466 112.673C85.8119 85.8654 57.8418 24 19.608 24C-12.3879 24 -6.98518 117.258 48.8742 194.589C178.233 345.083 273.289 352 359.147 352C445.004 352 482 308.58 482 281.772C482 254.964 456.14 216.813 316.49 216.813C176.843 216.813 125.12 139.482 105.466 112.673Z" fill="#600000"/>
<g clip-path="url(#clip0_19_300)">
<path d="M229.938 288.75C243.123 288.75 253.812 278.788 253.812 266.5C253.812 254.212 243.123 244.25 229.938 244.25C216.752 244.25 206.062 254.212 206.062 266.5C206.062 278.788 216.752 288.75 229.938 288.75Z" fill="white" stroke="white"/>
<path d="M189.182 121.876L122.5 184.019L139.38 199.751L206.062 137.607L189.182 121.876Z" fill="white" stroke="white"/>
<path d="M361.25 139.497L258.758 44H98.625V66.25H248.867L284.679 99.625L98.625 273.018L115.506 288.75L301.562 115.367L344.346 155.25L301.562 195.143L318.443 210.875L361.25 171.003C365.728 166.822 368.242 161.157 368.242 155.25C368.242 149.343 365.728 143.678 361.25 139.497Z" fill="white" stroke="white"/>
<path d="M353.781 82.875C345.518 82.875 337.44 80.5914 330.569 76.3129C323.698 72.0344 318.343 65.9531 315.18 58.8382C312.018 51.7234 311.191 43.8943 312.803 36.3412C314.415 28.7881 318.394 21.8501 324.237 16.4045C330.081 10.959 337.525 7.2506 345.63 5.74819C353.735 4.24578 362.136 5.01687 369.77 7.96396C377.405 10.911 383.93 15.9018 388.521 22.305C393.112 28.7082 395.563 36.2364 395.563 43.9375C395.55 54.2608 391.144 64.1578 383.311 71.4575C375.478 78.7571 364.858 82.8632 353.781 82.875ZM353.781 27.25C350.24 27.25 346.778 28.2287 343.833 30.0624C340.888 31.896 338.593 34.5022 337.238 37.5515C335.883 40.6007 335.528 43.956 336.219 47.1931C336.91 50.4301 338.615 53.4036 341.12 55.7374C343.624 58.0711 346.814 59.6605 350.288 60.3044C353.761 60.9483 357.362 60.6178 360.634 59.3548C363.906 58.0917 366.702 55.9528 368.67 53.2086C370.637 50.4643 371.688 47.238 371.688 43.9375C371.682 39.5133 369.794 35.2716 366.437 32.1432C363.08 29.0148 358.529 27.255 353.781 27.25Z" fill="white" stroke="white"/>
</g>
<defs>
<clipPath id="clip0_19_300">
<rect width="322" height="311" fill="white" transform="translate(80)"/>
</clipPath>
</defs>
</svg>
